<svg viewBox="0 0 800 420" xmlns="http://www.w3.org/2000/svg" fill="none">
  <rect x="28" y="68" width="72" height="86" rx="7" fill="#3a8a5614" stroke="#3a8a56" stroke-width="1.2"/>
  <polyline points="78,68 100,68 100,90 78,90" fill="#3a8a5620" stroke="#3a8a56" stroke-width="1"/>
  <line x1="42" y1="106" x2="88" y2="106" stroke="#3a8a56" stroke-width="1" opacity=".45"/>
  <line x1="42" y1="117" x2="88" y2="117" stroke="#3a8a56" stroke-width="1" opacity=".45"/>
  <line x1="42" y1="128" x2="72" y2="128" stroke="#3a8a56" stroke-width="1" opacity=".45"/>
  <text x="64" y="170" text-anchor="middle" fill="#3a8a56" font-size="10" font-family="system-ui,sans-serif" font-weight="600" opacity=".75">Documents</text>
  <ellipse cx="64" cy="250" rx="38" ry="12" fill="#3a8a5614" stroke="#3a8a56" stroke-width="1.2"/>
  <rect x="26" y="250" width="76" height="44" fill="#3a8a5614" stroke="#3a8a56" stroke-width="1.2"/>
  <ellipse cx="64" cy="294" rx="38" ry="12" fill="#3a8a5618" stroke="#3a8a56" stroke-width="1.2"/>
  <text x="64" y="278" text-anchor="middle" fill="#3a8a56" font-size="10" font-family="system-ui,sans-serif" font-weight="600" opacity=".75">Source DB</text>
  <text x="64" y="322" text-anchor="middle" fill="#3a8a56" font-size="9.5" font-family="system-ui,sans-serif" font-weight="600" opacity=".6">+ API / CSV</text>
  <line x1="102" y1="111" x2="196" y2="175" stroke="#3a8a56" stroke-width="1.2" opacity=".5"/>
  <polygon points="202,178 194,170 200,168" fill="#3a8a56" opacity=".6"/>
  <line x1="104" y1="272" x2="196" y2="210" stroke="#3a8a56" stroke-width="1.2" opacity=".5"/>
  <polygon points="202,207 195,215 201,217" fill="#3a8a56" opacity=".6"/>
  <rect x="204" y="158" width="128" height="78" rx="11" fill="#3a8a5618" stroke="#3a8a56" stroke-width="1.5"/>
  <text x="268" y="191" text-anchor="middle" fill="#3a8a56" font-size="12" font-family="system-ui,sans-serif" font-weight="700">ETL · Ingest</text>
  <text x="268" y="207" text-anchor="middle" fill="#3a8a56" font-size="9" font-family="monospace" opacity=".6">chunk · embed · index</text>
  <text x="268" y="221" text-anchor="middle" fill="#3a8a56" font-size="9" font-family="monospace" opacity=".5">clean · transform</text>
  <line x1="268" y1="238" x2="268" y2="292" stroke="#3a8a56" stroke-width="1.2" stroke-dasharray="5 3" opacity=".5"/>
  <polygon points="268,298 264,290 272,290" fill="#3a8a56" opacity=".55"/>
  <ellipse cx="268" cy="308" rx="54" ry="14" fill="#3a8a5618" stroke="#3a8a56" stroke-width="1.2"/>
  <rect x="214" y="308" width="108" height="52" fill="#3a8a5614" stroke="#3a8a56" stroke-width="1.2"/>
  <ellipse cx="268" cy="360" rx="54" ry="12" fill="#3a8a5618" stroke="#3a8a56" stroke-width="1.2"/>
  <text x="268" y="340" text-anchor="middle" fill="#3a8a56" font-size="11" font-family="system-ui,sans-serif" font-weight="700">Vector DB</text>
  <text x="268" y="355" text-anchor="middle" fill="#3a8a56" font-size="8.5" font-family="monospace" opacity=".55">embeddings</text>
  <line x1="323" y1="330" x2="388" y2="270" stroke="#3a8a56" stroke-width="1.2" stroke-dasharray="5 3" opacity=".5"/>
  <polygon points="393,265 386,273 394,271" fill="#3a8a56" opacity=".55"/>
  <line x1="334" y1="197" x2="388" y2="197" stroke="#3a8a56" stroke-width="1.5" opacity=".55"/>
  <polygon points="394,197 387,193 387,201" fill="#3a8a56" opacity=".65"/>
  <rect x="394" y="100" width="206" height="240" rx="16" fill="#3a8a5620" stroke="#3a8a56" stroke-width="2"/>
  <text x="497" y="132" text-anchor="middle" fill="#3a8a56" font-size="14" font-family="system-ui,sans-serif" font-weight="800">AI Engine</text>
  <text x="497" y="150" text-anchor="middle" fill="#3a8a56" font-size="9" font-family="monospace" opacity=".6">RAG · LLM · MCP agents</text>
  <circle cx="450" cy="185" r="4.5" fill="#3a8a56" opacity=".25"/>
  <circle cx="497" cy="185" r="4.5" fill="#3a8a56" opacity=".45"/>
  <circle cx="544" cy="185" r="4.5" fill="#3a8a56" opacity=".25"/>
  <circle cx="473" cy="215" r="4.5" fill="#3a8a56" opacity=".35"/>
  <circle cx="521" cy="215" r="4.5" fill="#3a8a56" opacity=".35"/>
  <circle cx="450" cy="245" r="4.5" fill="#3a8a56" opacity=".25"/>
  <circle cx="497" cy="245" r="4.5" fill="#3a8a56" opacity=".45"/>
  <circle cx="544" cy="245" r="4.5" fill="#3a8a56" opacity=".25"/>
  <line x1="450" y1="185" x2="473" y2="215" stroke="#3a8a56" stroke-width="0.9" opacity=".2"/>
  <line x1="497" y1="185" x2="473" y2="215" stroke="#3a8a56" stroke-width="0.9" opacity=".2"/>
  <line x1="497" y1="185" x2="521" y2="215" stroke="#3a8a56" stroke-width="0.9" opacity=".2"/>
  <line x1="544" y1="185" x2="521" y2="215" stroke="#3a8a56" stroke-width="0.9" opacity=".2"/>
  <line x1="473" y1="215" x2="450" y2="245" stroke="#3a8a56" stroke-width="0.9" opacity=".2"/>
  <line x1="473" y1="215" x2="497" y2="245" stroke="#3a8a56" stroke-width="0.9" opacity=".2"/>
  <line x1="521" y1="215" x2="497" y2="245" stroke="#3a8a56" stroke-width="0.9" opacity=".2"/>
  <line x1="521" y1="215" x2="544" y2="245" stroke="#3a8a56" stroke-width="0.9" opacity=".2"/>
  <text x="497" y="295" text-anchor="middle" fill="#3a8a56" font-size="8.5" font-family="monospace" opacity=".5">context · grounding</text>
  <text x="497" y="310" text-anchor="middle" fill="#3a8a56" font-size="8.5" font-family="monospace" opacity=".5">guardrails · hallucination checks</text>
  <line x1="602" y1="220" x2="644" y2="220" stroke="#3a8a56" stroke-width="1.5" opacity=".6"/>
  <polygon points="650,220 642,216 642,224" fill="#3a8a56" opacity=".7"/>
  <rect x="650" y="148" width="140" height="144" rx="14" fill="#3a8a5618" stroke="#3a8a56" stroke-width="1.5"/>
  <polygon points="650,218 632,225 650,234" fill="#3a8a5618" stroke="#3a8a56" stroke-width="1"/>
  <text x="720" y="180" text-anchor="middle" fill="#3a8a56" font-size="11" font-family="system-ui,sans-serif" font-weight="700">Response</text>
  <line x1="668" y1="196" x2="772" y2="196" stroke="#3a8a56" stroke-width="1" opacity=".35"/>
  <line x1="668" y1="210" x2="772" y2="210" stroke="#3a8a56" stroke-width="1" opacity=".35"/>
  <line x1="668" y1="224" x2="772" y2="224" stroke="#3a8a56" stroke-width="1" opacity=".35"/>
  <line x1="668" y1="238" x2="740" y2="238" stroke="#3a8a56" stroke-width="1" opacity=".35"/>
  <line x1="668" y1="265" x2="772" y2="265" stroke="#3a8a56" stroke-width="1" opacity=".2"/>
  <line x1="668" y1="277" x2="720" y2="277" stroke="#3a8a56" stroke-width="1" opacity=".2"/>
  <circle cx="758" cy="270" r="10" fill="#3a8a5625" stroke="#3a8a56" stroke-width="1"/>
  <text x="758" y="274" text-anchor="middle" fill="#3a8a56" font-size="11">&#10003;</text>
</svg>
